<?xml version="1.0" encoding="UTF-8"?>
<svg xmlns="http://www.w3.org/2000/svg" xmlns:xlink="http://www.w3.org/1999/xlink" viewBox="0 0 100 100" width="100px" height="100px">
<g id="surface156719235">
<path style=" stroke:none;fill-rule:nonzero;fill:rgb(255%,255%,255%);fill-opacity:1;" d="M 60.28125 4 C 53.742188 4 48.089844 5.992188 44.125 9.933594 C 40.160156 13.875 38 19.648438 38 26.734375 L 38 36 L 26 36 C 24.894531 36 24 36.894531 24 38 L 24 54 C 24 55.105469 24.894531 56 26 56 L 38 56 L 38 94 C 38 95.105469 38.894531 96 40 96 L 56 96 C 57.105469 96 58 95.105469 58 94 L 58 56 L 72 56 C 73.007812 56 73.859375 55.25 73.984375 54.25 L 75.984375 38.25 C 76.054688 37.679688 75.878906 37.109375 75.5 36.675781 C 75.121094 36.246094 74.574219 36 74 36 L 58 36 L 58 28 C 58 25.765625 59.765625 24 62 24 L 74 24 C 75.105469 24 76 23.105469 76 22 L 76 6.691406 C 76 5.6875 75.253906 4.84375 74.261719 4.710938 C 72.496094 4.476562 66.113281 4 60.28125 4 Z M 60.28125 8 C 65.15625 8 69.871094 8.390625 72 8.589844 L 72 20 L 62 20 C 57.605469 20 54 23.605469 54 28 L 54 38 C 54 39.105469 54.894531 40 56 40 L 71.734375 40 L 70.234375 52 L 56 52 C 54.894531 52 54 52.894531 54 54 L 54 92 L 42 92 L 42 54 C 42 52.894531 41.105469 52 40 52 L 28 52 L 28 40 L 40 40 C 41.105469 40 42 39.105469 42 38 L 42 26.734375 C 42 20.445312 43.839844 15.855469 46.945312 12.769531 C 50.050781 9.683594 54.539062 8 60.28125 8 Z M 60.28125 8 "/>
</g>
</svg>
