<svg xmlns="http://www.w3.org/2000/svg" width="25" height="25" viewBox="0 0 25 25">
  <defs>
    <style>
      .cls-1 {
        fill: #fff;
      }
    </style>
  </defs>
  <path id="Icon_ionic-md-contact" data-name="Icon ionic-md-contact" class="cls-1" d="M15.875,3.375a12.5,12.5,0,1,0,12.5,12.5A12.537,12.537,0,0,0,15.875,3.375Zm0,3.75a3.75,3.75,0,1,1-3.75,3.75A3.763,3.763,0,0,1,15.875,7.125Zm0,18.053a9.106,9.106,0,0,1-7.5-4c.06-2.5,5-3.876,7.5-3.876s7.44,1.376,7.5,3.876A9.121,9.121,0,0,1,15.875,25.178Z" transform="translate(-3.375 -3.375)"/>
</svg>
